<?xml version="1.0" encoding="iso-8859-1"?>
<!-- Uploaded to: SVG Repo, www.svgrepo.com, Generator: SVG Repo Mixer Tools -->
<svg fill="#000000" height="800px" width="800px" version="1.1" id="Layer_1" xmlns="http://www.w3.org/2000/svg" xmlns:xlink="http://www.w3.org/1999/xlink" 
	 viewBox="0 0 512.003 512.003" xml:space="preserve">
<g>
	<g>
		<g>
			<path d="M65.769,412.103c-3.328-3.337-8.73-3.337-12.066,0l-11.034,11.034V29.136l11.034,11.034c1.664,1.664,3.849,2.5,6.033,2.5
				s4.369-0.836,6.033-2.5c3.337-3.337,3.337-8.738,0-12.066L40.177,2.512c-0.785-0.794-1.732-1.417-2.782-1.852
				c-2.082-0.862-4.437-0.862-6.519,0c-1.05,0.435-1.988,1.058-2.782,1.852L2.502,28.103c-3.336,3.328-3.336,8.73,0,12.066
				c3.337,3.328,8.738,3.328,12.066,0l11.034-11.034v394.001l-11.034-11.034c-3.328-3.337-8.73-3.337-12.066,0
				c-3.336,3.328-3.336,8.73,0,12.066l25.591,25.591c0.794,0.794,1.732,1.417,2.782,1.852c1.041,0.427,2.15,0.657,3.26,0.657
				c1.109,0,2.219-0.23,3.26-0.657c1.05-0.435,1.997-1.058,2.782-1.852l25.591-25.591C69.105,420.833,69.105,415.431,65.769,412.103
				z"/>
			<path d="M509.494,471.827l-25.591-25.591c-3.337-3.336-8.73-3.336-12.066,0c-3.337,3.328-3.337,8.73,0,12.066l11.034,11.034
				H88.869l11.034-11.034c3.337-3.337,3.337-8.738,0-12.066c-3.336-3.336-8.73-3.336-12.066,0l-25.591,25.591
				c-0.794,0.794-1.417,1.732-1.852,2.782c-0.862,2.082-0.862,4.437,0,6.519c0.435,1.05,1.058,1.988,1.852,2.782l25.591,25.591
				c1.664,1.664,3.849,2.5,6.033,2.5c2.185,0,4.369-0.836,6.033-2.5c3.337-3.337,3.337-8.738,0-12.066l-11.034-11.034H482.87
				l-11.034,11.034c-3.337,3.328-3.337,8.73,0,12.066c1.664,1.664,3.849,2.5,6.033,2.5c2.185,0,4.369-0.836,6.033-2.5l25.591-25.591
				c0.794-0.794,1.417-1.732,1.852-2.782c0.862-2.082,0.862-4.437,0-6.519C510.911,473.559,510.288,472.621,509.494,471.827z"/>
			<path d="M187.353,290.134H85.337v85.333h8.533C142.749,375.468,183.027,337.913,187.353,290.134z"/>
			<path d="M512.003,102.401V8.534c0-4.71-3.814-8.533-8.533-8.533h-153.6v102.4h25.6v-8.533c0-4.71,3.814-8.533,8.533-8.533
				c4.719,0,8.533,3.823,8.533,8.533v34.133c0,4.71-3.814,8.533-8.533,8.533c-4.719,0-8.533-3.823-8.533-8.533v-8.533h-34.133
				c-4.719,0-8.533-3.823-8.533-8.533V0.001h-76.8v68.267h8.533c4.719,0,8.533,3.823,8.533,8.533s-3.814,8.533-8.533,8.533h-34.133
				c-4.719,0-8.533-3.823-8.533-8.533s3.814-8.533,8.533-8.533h8.533V0.001H93.87c-4.719,0-8.533,3.823-8.533,8.533v196.267h153.6
				v-51.2h-8.533c-4.719,0-8.533-3.823-8.533-8.533s3.814-8.533,8.533-8.533h34.133c4.719,0,8.533,3.823,8.533,8.533
				s-3.814,8.533-8.533,8.533h-8.533v59.733c0,4.71-3.814,8.533-8.533,8.533H85.336v51.2H196.27c4.719,0,8.533,3.823,8.533,8.533
				c0,61.167-49.766,110.933-110.933,110.933h-8.533v25.6c0,4.71,3.814,8.533,8.533,8.533h196.267V264.534
				c0-4.71,3.814-8.533,8.533-8.533h59.733v-8.533c0-4.71,3.814-8.533,8.533-8.533s8.533,3.823,8.533,8.533v34.133
				c0,4.71-3.814,8.533-8.533,8.533s-8.533-3.823-8.533-8.533v-8.533h-51.2v153.6H503.47c4.719,0,8.533-3.823,8.533-8.533V273.068
				h-68.267v8.533c0,4.71-3.814,8.533-8.533,8.533s-8.533-3.823-8.533-8.533v-34.133c0-4.71,3.814-8.533,8.533-8.533
				s8.533,3.823,8.533,8.533v8.533h68.267V119.468h-51.2v8.533c0,4.71-3.814,8.533-8.533,8.533c-4.719,0-8.533-3.823-8.533-8.533
				V93.868c0-4.71,3.814-8.533,8.533-8.533c4.719,0,8.533,3.823,8.533,8.533v8.533H512.003z"/>
		</g>
	</g>
</g>
</svg>