<svg width="106" height="24" viewBox="0 0 106 24" fill="none" xmlns="http://www.w3.org/2000/svg">
<path d="M3.68892 1.18182V23H0.397017V1.18182H3.68892ZM24.593 1.18182V23H21.5675L10.4773 6.99858H10.2749V23H6.98295V1.18182H10.0298L21.1307 17.2045H21.3331V1.18182H24.593ZM26.8191 4.01562V1.18182H43.7047V4.01562H36.8972V23H33.6159V4.01562H26.8191ZM45.9361 23V1.18182H59.6151V4.01562H49.228V10.6634H58.9013V13.4865H49.228V20.1662H59.7429V23H45.9361ZM62.5123 23V1.18182H70.2892C71.9796 1.18182 73.3823 1.47301 74.4973 2.0554C75.6195 2.63778 76.4576 3.44389 77.0115 4.47372C77.5655 5.49645 77.8425 6.67898 77.8425 8.02131C77.8425 9.35653 77.562 10.532 77.0009 11.5476C76.4469 12.5561 75.6088 13.3409 74.4867 13.902C73.3716 14.4631 71.9689 14.7436 70.2786 14.7436H64.3873V11.9098H69.9803C71.0456 11.9098 71.9121 11.7571 72.5797 11.4517C73.2544 11.1463 73.748 10.7024 74.0605 10.12C74.373 9.53764 74.5293 8.83807 74.5293 8.02131C74.5293 7.19744 74.3695 6.48366 74.0499 5.87997C73.7374 5.27628 73.2438 4.81463 72.5691 4.49503C71.9015 4.16832 71.0243 4.00497 69.9377 4.00497H65.8042V23H62.5123ZM73.2828 13.1562L78.6735 23H74.9235L69.6394 13.1562H73.2828ZM83.6401 1.18182V23H80.3482V1.18182H83.6401ZM105.887 12.0909C105.887 14.4205 105.46 16.4233 104.608 18.0994C103.756 19.7685 102.588 21.054 101.103 21.956C99.6259 22.8509 97.9462 23.2983 96.0641 23.2983C94.1749 23.2983 92.4881 22.8509 91.0037 21.956C89.5265 21.054 88.3617 19.7649 87.5094 18.0888C86.6571 16.4126 86.231 14.4134 86.231 12.0909C86.231 9.76136 86.6571 7.76207 87.5094 6.09304C88.3617 4.4169 89.5265 3.13139 91.0037 2.23651C92.4881 1.33452 94.1749 0.883522 96.0641 0.883522C97.9462 0.883522 99.6259 1.33452 101.103 2.23651C102.588 3.13139 103.756 4.4169 104.608 6.09304C105.46 7.76207 105.887 9.76136 105.887 12.0909ZM102.627 12.0909C102.627 10.3153 102.339 8.82031 101.764 7.60582C101.195 6.38423 100.414 5.46094 99.4199 4.83594C98.4327 4.20384 97.3141 3.88778 96.0641 3.88778C94.807 3.88778 93.6848 4.20384 92.6976 4.83594C91.7104 5.46094 90.9292 6.38423 90.3539 7.60582C89.7857 8.82031 89.5016 10.3153 89.5016 12.0909C89.5016 13.8665 89.7857 15.3651 90.3539 16.5866C90.9292 17.8011 91.7104 18.7244 92.6976 19.3565C93.6848 19.9815 94.807 20.294 96.0641 20.294C97.3141 20.294 98.4327 19.9815 99.4199 19.3565C100.414 18.7244 101.195 17.8011 101.764 16.5866C102.339 15.3651 102.627 13.8665 102.627 12.0909Z" fill="#F5F5F5"/>
</svg>
